<svg width="24" height="24" viewBox="0 0 24 24" fill="none" xmlns="http://www.w3.org/2000/svg">
<g clip-path="url(#clip0_508_10554)">
<path d="M20.3143 22.6288L8.86288 18.3603C8.52391 18.2406 8.2205 18.0375 7.98059 17.7698C7.74068 17.502 7.57198 17.1783 7.49002 16.8282C7.40807 16.4782 7.41549 16.1132 7.5116 15.7668C7.60771 15.4204 7.78943 15.1037 8.04002 14.846L15.2229 7.66312C15.4882 7.41443 15.812 7.23676 16.1643 7.14657C16.5166 7.05639 16.886 7.05661 17.2382 7.14723C17.5904 7.23784 17.914 7.41591 18.179 7.66492C18.4441 7.91393 18.6419 8.22583 18.7543 8.5717L23.0057 20.0231C23.1238 20.3941 23.136 20.7907 23.041 21.1682C22.9459 21.5458 22.7473 21.8893 22.4676 22.1601C22.1879 22.4309 21.8381 22.6183 21.4577 22.7011C21.0773 22.7839 20.6813 22.7589 20.3143 22.6288V22.6288Z" stroke="black" stroke-width="1.71429" stroke-linecap="round" stroke-linejoin="round"/>
<path d="M3.5144 12.2231C4.27566 11.7983 5.16714 11.67 6.01726 11.8631" stroke="black" stroke-width="1.71429" stroke-linecap="round" stroke-linejoin="round"/>
<path d="M7.42277 7.33728C6.93732 6.60544 6.73613 5.7214 6.85706 4.85156" stroke="black" stroke-width="1.71429" stroke-linecap="round" stroke-linejoin="round"/>
<path d="M11.3658 1.23438C10.7649 3.07496 10.844 5.06998 11.5886 6.85723" stroke="black" stroke-width="1.71429" stroke-linecap="round" stroke-linejoin="round"/>
<path d="M1.71432 6.47991C2.18771 6.47991 2.57146 6.09615 2.57146 5.62277C2.57146 5.14938 2.18771 4.76562 1.71432 4.76562C1.24093 4.76562 0.857178 5.14938 0.857178 5.62277C0.857178 6.09615 1.24093 6.47991 1.71432 6.47991Z" stroke="black" stroke-width="1.71429" stroke-linecap="round" stroke-linejoin="round"/>
</g>
<defs>
<clipPath id="clip0_508_10554">
<rect width="24" height="24" fill="white"/>
</clipPath>
</defs>
</svg>
