<svg width="24" height="24" viewBox="0 0 24 24" fill="none" xmlns="http://www.w3.org/2000/svg">
<path d="M8.5715 10.2856C10.7017 10.2856 12.4286 8.55867 12.4286 6.42843C12.4286 4.29819 10.7017 2.57129 8.5715 2.57129C6.44126 2.57129 4.71436 4.29819 4.71436 6.42843C4.71436 8.55867 6.44126 10.2856 8.5715 10.2856Z" stroke="black" stroke-width="1.71429" stroke-linecap="round" stroke-linejoin="round"/>
<path d="M16.2857 23.1429H0.857178V21.4286C0.857178 19.3827 1.66993 17.4205 3.11664 15.9738C4.56335 14.5271 6.52551 13.7144 8.57146 13.7144C10.6174 13.7144 12.5796 14.5271 14.0263 15.9738C15.473 17.4205 16.2857 19.3827 16.2857 21.4286V23.1429Z" stroke="black" stroke-width="1.71429" stroke-linecap="round" stroke-linejoin="round"/>
<path d="M15.4286 2.57129C16.4516 2.57129 17.4326 2.97767 18.156 3.70102C18.8794 4.42437 19.2857 5.40545 19.2857 6.42843C19.2857 7.45141 18.8794 8.43249 18.156 9.15584C17.4326 9.8792 16.4516 10.2856 15.4286 10.2856" stroke="black" stroke-width="1.71429" stroke-linecap="round" stroke-linejoin="round"/>
<path d="M18.1715 14.04C19.6318 14.5956 20.889 15.5814 21.7767 16.8671C22.6645 18.1527 23.1409 19.6777 23.1429 21.24V23.1429H20.5715" stroke="black" stroke-width="1.71429" stroke-linecap="round" stroke-linejoin="round"/>
</svg>
